<svg width="34" height="34" viewBox="0 0 34 34" fill="none" xmlns="http://www.w3.org/2000/svg">
<circle cx="17" cy="17" r="17" fill="#FF7F7D"/>
<path d="M21.1263 24.833H14.0263C13.3663 24.833 12.733 24.553 12.2863 24.0663C11.8397 23.5797 11.613 22.9263 11.6663 22.2663L12.2197 15.6263C12.2397 15.4197 12.1663 15.2197 12.0263 15.0663C11.8863 14.913 11.693 14.833 11.4863 14.833H10.333C10.0597 14.833 9.83301 14.6063 9.83301 14.333C9.83301 14.0597 10.0597 13.833 10.333 13.833H11.493C11.9797 13.833 12.4397 14.0397 12.7663 14.393C12.9463 14.593 13.0797 14.8263 13.153 15.0863H21.4797C22.153 15.0863 22.773 15.353 23.2263 15.833C23.673 16.3197 23.8997 16.953 23.8463 17.6263L23.4863 22.6263C23.413 23.8463 22.3463 24.833 21.1263 24.833ZM13.1863 16.0797L12.6663 22.3463C12.633 22.733 12.7597 23.0997 13.0197 23.3863C13.2797 23.673 13.6397 23.8263 14.0263 23.8263H21.1263C21.8197 23.8263 22.4463 23.2397 22.4997 22.5463L22.8597 17.5463C22.8863 17.153 22.7597 16.7797 22.4997 16.5063C22.2397 16.2263 21.8797 16.073 21.4863 16.073H13.1863V16.0797Z" fill="#292D32"/>
<path d="M19.8333 28.1667C19.1 28.1667 18.5 27.5667 18.5 26.8333C18.5 26.1 19.1 25.5 19.8333 25.5C20.5667 25.5 21.1667 26.1 21.1667 26.8333C21.1667 27.5667 20.5667 28.1667 19.8333 28.1667ZM19.8333 26.5C19.6467 26.5 19.5 26.6467 19.5 26.8333C19.5 27.02 19.6467 27.1667 19.8333 27.1667C20.02 27.1667 20.1667 27.02 20.1667 26.8333C20.1667 26.6467 20.02 26.5 19.8333 26.5Z" fill="#292D32"/>
<path d="M14.5003 28.1667C13.767 28.1667 13.167 27.5667 13.167 26.8333C13.167 26.1 13.767 25.5 14.5003 25.5C15.2337 25.5 15.8337 26.1 15.8337 26.8333C15.8337 27.5667 15.2337 28.1667 14.5003 28.1667ZM14.5003 26.5C14.3137 26.5 14.167 26.6467 14.167 26.8333C14.167 27.02 14.3137 27.1667 14.5003 27.1667C14.687 27.1667 14.8337 27.02 14.8337 26.8333C14.8337 26.6467 14.687 26.5 14.5003 26.5Z" fill="#292D32"/>
<path d="M23 18.833H15C14.7267 18.833 14.5 18.6063 14.5 18.333C14.5 18.0597 14.7267 17.833 15 17.833H23C23.2733 17.833 23.5 18.0597 23.5 18.333C23.5 18.6063 23.2733 18.833 23 18.833Z" fill="#292D32"/>
<path d="M19.2146 13.4096C19.1196 13.4096 19.0246 13.3746 18.9496 13.2996C18.8046 13.1546 18.8046 12.9146 18.9496 12.7696L21.7196 9.99957L18.9496 7.22957C18.8046 7.08457 18.8046 6.84457 18.9496 6.69957C19.0946 6.55457 19.3346 6.55457 19.4796 6.69957L22.5146 9.73457C22.6596 9.87957 22.6596 10.1196 22.5146 10.2646L19.4796 13.2996C19.4046 13.3746 19.3096 13.4096 19.2146 13.4096Z" fill="#292D32"/>
<path d="M22.165 10.375H13.75C13.545 10.375 13.375 10.205 13.375 10C13.375 9.795 13.545 9.625 13.75 9.625H22.165C22.37 9.625 22.54 9.795 22.54 10C22.54 10.205 22.37 10.375 22.165 10.375Z" fill="#292D32"/>
</svg>
