<svg width="34" height="34" viewBox="0 0 34 34" fill="none" xmlns="http://www.w3.org/2000/svg">
<circle cx="17" cy="17" r="17" fill="#FF7F7D"/>
<path d="M21.8253 24.9586H12.1753C9.89199 24.9586 8.04199 23.1003 8.04199 20.817V14.642C8.04199 13.5086 8.74199 12.0836 9.64199 11.3836L14.1337 7.88364C15.4837 6.83364 17.642 6.78364 19.042 7.76697L24.192 11.3753C25.1837 12.067 25.9587 13.5503 25.9587 14.7586V20.8253C25.9587 23.1003 24.1087 24.9586 21.8253 24.9586ZM14.9003 8.86697L10.4087 12.367C9.81699 12.8336 9.29199 13.892 9.29199 14.642V20.817C9.29199 22.4086 10.5837 23.7086 12.1753 23.7086H21.8253C23.417 23.7086 24.7087 22.417 24.7087 20.8253V14.7586C24.7087 13.9586 24.1337 12.8503 23.4753 12.4003L18.3253 8.79197C17.3753 8.1253 15.8087 8.15864 14.9003 8.86697Z" fill="#2A2A2A"/>
<path d="M17 21.625C16.6583 21.625 16.375 21.3417 16.375 21V18.5C16.375 18.1583 16.6583 17.875 17 17.875C17.3417 17.875 17.625 18.1583 17.625 18.5V21C17.625 21.3417 17.3417 21.625 17 21.625Z" fill="#2A2A2A"/>
</svg>
